<svg width="1440" height="405" viewBox="0 0 1440 405" fill="none" xmlns="http://www.w3.org/2000/svg">
<g clip-path="url(#clip0_23_3270)" filter="url(#filter0_b_23_3270)">
<rect width="1440" height="404" transform="translate(0 0.941162)" fill="#5B8CBB"/>
<rect x="-17" y="2.50977" width="80" height="80" rx="8" transform="rotate(-45 -17 2.50977)" fill="white" fill-opacity="0.05"/>
<rect x="-17" y="162.51" width="80" height="80" rx="8" transform="rotate(-45 -17 162.51)" fill="white" fill-opacity="0.05"/>
<rect x="-17" y="322.51" width="80" height="80" rx="8" transform="rotate(-45 -17 322.51)" fill="white" fill-opacity="0.05"/>
<rect x="63" y="82.5098" width="80" height="80" rx="8" transform="rotate(-45 63 82.5098)" fill="white" fill-opacity="0.05"/>
<rect x="63" y="242.51" width="80" height="80" rx="8" transform="rotate(-45 63 242.51)" fill="white" fill-opacity="0.05"/>
<rect x="63" y="402.51" width="80" height="80" rx="8" transform="rotate(-45 63 402.51)" fill="white" fill-opacity="0.05"/>
<rect x="143" y="2.50977" width="80" height="80" rx="8" transform="rotate(-45 143 2.50977)" fill="white" fill-opacity="0.05"/>
<rect x="143" y="162.51" width="80" height="80" rx="8" transform="rotate(-45 143 162.51)" fill="white" fill-opacity="0.05"/>
<rect x="143" y="322.51" width="80" height="80" rx="8" transform="rotate(-45 143 322.51)" fill="white" fill-opacity="0.05"/>
<rect x="223" y="82.5098" width="80" height="80" rx="8" transform="rotate(-45 223 82.5098)" fill="white" fill-opacity="0.05"/>
<rect x="223" y="242.51" width="80" height="80" rx="8" transform="rotate(-45 223 242.51)" fill="white" fill-opacity="0.05"/>
<rect x="223" y="402.51" width="80" height="80" rx="8" transform="rotate(-45 223 402.51)" fill="white" fill-opacity="0.05"/>
<rect x="303" y="2.50977" width="80" height="80" rx="8" transform="rotate(-45 303 2.50977)" fill="white" fill-opacity="0.05"/>
<rect x="303" y="162.51" width="80" height="80" rx="8" transform="rotate(-45 303 162.51)" fill="white" fill-opacity="0.05"/>
<rect x="303" y="322.51" width="80" height="80" rx="8" transform="rotate(-45 303 322.51)" fill="white" fill-opacity="0.05"/>
<rect x="383" y="82.5098" width="80" height="80" rx="8" transform="rotate(-45 383 82.5098)" fill="white" fill-opacity="0.05"/>
<rect x="383" y="242.51" width="80" height="80" rx="8" transform="rotate(-45 383 242.51)" fill="white" fill-opacity="0.05"/>
<rect x="383" y="402.51" width="80" height="80" rx="8" transform="rotate(-45 383 402.51)" fill="white" fill-opacity="0.05"/>
<rect x="463" y="2.50977" width="80" height="80" rx="8" transform="rotate(-45 463 2.50977)" fill="white" fill-opacity="0.05"/>
<rect x="463" y="162.51" width="80" height="80" rx="8" transform="rotate(-45 463 162.51)" fill="white" fill-opacity="0.05"/>
<rect x="463" y="322.51" width="80" height="80" rx="8" transform="rotate(-45 463 322.51)" fill="white" fill-opacity="0.05"/>
<rect x="543" y="82.5098" width="80" height="80" rx="8" transform="rotate(-45 543 82.5098)" fill="white" fill-opacity="0.05"/>
<rect x="543" y="242.51" width="80" height="80" rx="8" transform="rotate(-45 543 242.51)" fill="white" fill-opacity="0.05"/>
<rect x="543" y="402.51" width="80" height="80" rx="8" transform="rotate(-45 543 402.51)" fill="white" fill-opacity="0.05"/>
<rect x="623" y="2.50977" width="80" height="80" rx="8" transform="rotate(-45 623 2.50977)" fill="white" fill-opacity="0.05"/>
<rect x="623" y="162.51" width="80" height="80" rx="8" transform="rotate(-45 623 162.51)" fill="white" fill-opacity="0.05"/>
<rect x="623" y="322.51" width="80" height="80" rx="8" transform="rotate(-45 623 322.51)" fill="white" fill-opacity="0.05"/>
<rect x="703" y="82.5098" width="80" height="80" rx="8" transform="rotate(-45 703 82.5098)" fill="white" fill-opacity="0.05"/>
<rect x="703" y="242.51" width="80" height="80" rx="8" transform="rotate(-45 703 242.51)" fill="white" fill-opacity="0.05"/>
<rect x="703" y="402.51" width="80" height="80" rx="8" transform="rotate(-45 703 402.51)" fill="white" fill-opacity="0.05"/>
<rect x="783" y="2.50977" width="80" height="80" rx="8" transform="rotate(-45 783 2.50977)" fill="white" fill-opacity="0.05"/>
<rect x="783" y="162.51" width="80" height="80" rx="8" transform="rotate(-45 783 162.51)" fill="white" fill-opacity="0.05"/>
<rect x="783" y="322.51" width="80" height="80" rx="8" transform="rotate(-45 783 322.51)" fill="white" fill-opacity="0.05"/>
<rect x="863" y="82.5098" width="80" height="80" rx="8" transform="rotate(-45 863 82.5098)" fill="white" fill-opacity="0.05"/>
<rect x="863" y="242.51" width="80" height="80" rx="8" transform="rotate(-45 863 242.51)" fill="white" fill-opacity="0.05"/>
<rect x="863" y="402.51" width="80" height="80" rx="8" transform="rotate(-45 863 402.51)" fill="white" fill-opacity="0.05"/>
<rect x="943" y="2.50977" width="80" height="80" rx="8" transform="rotate(-45 943 2.50977)" fill="white" fill-opacity="0.05"/>
<rect x="943" y="162.51" width="80" height="80" rx="8" transform="rotate(-45 943 162.51)" fill="white" fill-opacity="0.05"/>
<rect x="943" y="322.51" width="80" height="80" rx="8" transform="rotate(-45 943 322.51)" fill="white" fill-opacity="0.05"/>
<rect x="1023" y="82.5098" width="80" height="80" rx="8" transform="rotate(-45 1023 82.5098)" fill="white" fill-opacity="0.05"/>
<rect x="1023" y="242.51" width="80" height="80" rx="8" transform="rotate(-45 1023 242.51)" fill="white" fill-opacity="0.05"/>
<rect x="1023" y="402.51" width="80" height="80" rx="8" transform="rotate(-45 1023 402.51)" fill="white" fill-opacity="0.05"/>
<rect x="1103" y="2.50977" width="80" height="80" rx="8" transform="rotate(-45 1103 2.50977)" fill="white" fill-opacity="0.05"/>
<rect x="1103" y="162.51" width="80" height="80" rx="8" transform="rotate(-45 1103 162.51)" fill="white" fill-opacity="0.05"/>
<rect x="1103" y="322.51" width="80" height="80" rx="8" transform="rotate(-45 1103 322.51)" fill="white" fill-opacity="0.05"/>
<rect x="1183" y="82.5098" width="80" height="80" rx="8" transform="rotate(-45 1183 82.5098)" fill="white" fill-opacity="0.05"/>
<rect x="1183" y="242.51" width="80" height="80" rx="8" transform="rotate(-45 1183 242.51)" fill="white" fill-opacity="0.05"/>
<rect x="1183" y="402.51" width="80" height="80" rx="8" transform="rotate(-45 1183 402.51)" fill="white" fill-opacity="0.05"/>
<rect x="1263" y="2.50977" width="80" height="80" rx="8" transform="rotate(-45 1263 2.50977)" fill="white" fill-opacity="0.05"/>
<rect x="1263" y="162.51" width="80" height="80" rx="8" transform="rotate(-45 1263 162.51)" fill="white" fill-opacity="0.05"/>
<rect x="1263" y="322.51" width="80" height="80" rx="8" transform="rotate(-45 1263 322.51)" fill="white" fill-opacity="0.05"/>
<rect x="1343" y="82.5098" width="80" height="80" rx="8" transform="rotate(-45 1343 82.5098)" fill="white" fill-opacity="0.05"/>
<rect x="1343" y="242.51" width="80" height="80" rx="8" transform="rotate(-45 1343 242.51)" fill="white" fill-opacity="0.05"/>
<rect x="1343" y="402.51" width="80" height="80" rx="8" transform="rotate(-45 1343 402.51)" fill="white" fill-opacity="0.05"/>
</g>
</svg>
